<svg id="Layer_1" data-name="Layer 1" xmlns="http://www.w3.org/2000/svg" viewBox="0 0 189 236.1"><defs><style>.cls-1{fill:#ddd92a;}.cls-2,.cls-4{fill:none;stroke:#212120;stroke-linecap:round;stroke-miterlimit:10;}.cls-2{stroke-width:9px;}.cls-3{fill:#212120;}.cls-4{stroke-width:4px;}.cls-5{isolation:isolate;font-size:39.4px;fill:#fff;font-family:Avenir-Roman, Avenir;}</style></defs><title>catSnack</title><path class="cls-1" d="M174.73,31C174,20.89,161.88,16,154,22.4L123.87,46.86a43.17,43.17,0,0,1-27.16,9.73h-.14a43.33,43.33,0,0,1-27.06-9.84L39.43,22.37c-7.85-6.35-20-1.53-20.7,8.54v.94l-.19,59.36c-.14,43.14,34.72,76.23,77.87,76.36h0c43.21.14,78.32-32.84,78.35-76V32C174.76,31.61,174.75,31.3,174.73,31Z" transform="translate(0 0.01)"/><path class="cls-2" d="M16.23,154.32l.45-137.48V15.9C17.41,5.83,29.53,1,37.37,7.36L67.46,31.73a43.26,43.26,0,0,0,27.06,9.85h.37A43.33,43.33,0,0,0,122,31.72L152,7.39C159.83,1,172,5.88,172.68,16v.94l-.09,137.89" transform="translate(0 0.01)"/><circle class="cls-3" cx="66.64" cy="76.73" r="7.94"/><circle class="cls-3" cx="122.37" cy="76.73" r="7.94"/><path class="cls-3" d="M91,117.27,84.51,106a4.34,4.34,0,0,1,3.76-6.5h13a4.34,4.34,0,0,1,4.34,4.34A4.42,4.42,0,0,1,105,106l-6.49,11.24a4.35,4.35,0,0,1-5.94,1.6A4.24,4.24,0,0,1,91,117.27Z" transform="translate(0 0.01)"/><line class="cls-2" x1="143.61" y1="122.69" x2="184.5" y2="122.69"/><line class="cls-2" x1="143.61" y1="92.56" x2="184.5" y2="92.56"/><line class="cls-2" x1="143.61" y1="107.63" x2="184.5" y2="107.63"/><line class="cls-2" x1="4.5" y1="92.56" x2="45.39" y2="92.56"/><line class="cls-2" x1="4.5" y1="107.63" x2="45.39" y2="107.63"/><line class="cls-2" x1="4.5" y1="122.69" x2="45.39" y2="122.69"/><path class="cls-4" d="M37.42,7.36l-3.26,5.56A24.54,24.54,0,0,0,30.8,25.31V52H45.39" transform="translate(0 0.01)"/><path class="cls-4" d="M152.62,7.36l3.26,5.56a24.44,24.44,0,0,1,3.35,12.39V52H143.61" transform="translate(0 0.01)"/><line class="cls-2" x1="94.5" y1="106.31" x2="94.5" y2="129.05"/><rect class="cls-3" x="4.23" y="179.1" width="180" height="57" rx="5.26" ry="5.26"/><text class="cls-5" transform="translate(16.1 219.65)">catSnack</text></svg>